<?xml version="1.0" encoding="UTF-8" standalone="no"?>
<svg
   xmlns:dc="http://purl.org/dc/elements/1.1/"
   xmlns:cc="http://creativecommons.org/ns#"
   xmlns:rdf="http://www.w3.org/1999/02/22-rdf-syntax-ns#"
   xmlns:svg="http://www.w3.org/2000/svg"
   xmlns="http://www.w3.org/2000/svg"
   xmlns:sodipodi="http://sodipodi.sourceforge.net/DTD/sodipodi-0.dtd"
   xmlns:inkscape="http://www.inkscape.org/namespaces/inkscape"
   width="36mm"
   height="36mm"
   viewBox="0 0 36 36"
   version="1.1"
   id="svg8"
   inkscape:version="1.0.2 (e86c870879, 2021-01-15)"
   sodipodi:docname="edit-lapis.svg">
  <defs
     id="defs2" />
  <sodipodi:namedview
     id="base"
     pagecolor="#ffffff"
     bordercolor="#666666"
     borderopacity="1.0"
     inkscape:pageopacity="0.0"
     inkscape:pageshadow="2"
     inkscape:zoom="0.99999999"
     inkscape:cx="174.76476"
     inkscape:cy="54.634394"
     inkscape:document-units="mm"
     inkscape:current-layer="layer1"
     inkscape:document-rotation="0"
     showgrid="false"
     inkscape:window-width="1763"
     inkscape:window-height="1018"
     inkscape:window-x="103"
     inkscape:window-y="0"
     inkscape:window-maximized="0" />
  <metadata
     id="metadata5">
    <rdf:RDF>
      <cc:Work
         rdf:about="">
        <dc:format>image/svg+xml</dc:format>
        <dc:type
           rdf:resource="http://purl.org/dc/dcmitype/StillImage" />
        <dc:title />
      </cc:Work>
    </rdf:RDF>
  </metadata>
  <g
     inkscape:label="Layer 1"
     inkscape:groupmode="layer"
     id="layer1">
    <g
       id="g942"
       transform="matrix(1.649055,-1.649055,2.1206093,2.1206093,-129.02421,135.31012)"
       style="fill:#ffffff">
      <path
         id="rect847"
         style="fill:#ffffff;stroke-width:1.8406"
         d="m 125.92578,2.0195312 -12.6543,6.2890626 c -0.37027,0.1890822 -0.36438,0.9355388 0,1.0957031 l 12.6543,6.3242191 v 0.002 h 2.7207 l -0.72851,-0.513672 2.41601,-1.273438 -2.4707,-1.300781 2.39844,-1.261719 -2.34766,-1.234375 2.29492,-1.208984 -2.36914,-1.2480469 2.4043,-1.265625 -2.29883,-1.2089843 2.25781,-1.1875 -2.29492,-1.2070313 1.51953,-0.8007813 h -3.5 z"
         transform="matrix(0.2412271,0,0,0.26458333,43.729517,4.6599698)" />
      <path
         id="path935"
         style="fill:#ffffff;stroke-width:1.75748"
         d="m 285.56055,19.632812 -1.38477,0.800782 2.0918,1.207031 -2.0586,1.1875 2.09571,1.208984 -2.19141,1.265625 2.16016,1.248047 -2.09375,1.208985 2.14062,1.234375 -2.18554,1.261718 2.25195,1.300782 -2.20313,1.273437 0.66407,0.513672 h 36.00586 V 19.632812 Z"
         transform="scale(0.26458333)" />
      <path
         id="rect847-3-7"
         style="font-variation-settings:normal;vector-effect:none;fill:#ffffff;fill-opacity:1;stroke-width:0.204128;stroke-linecap:butt;stroke-linejoin:miter;stroke-miterlimit:4;stroke-dasharray:none;stroke-dashoffset:0;stroke-opacity:1;stop-color:#000000"
         d="m 85.495232,5.1947247 v 0.5498375 2.5274942 0.5498372 h 0.550354 0.584978 0.276984 c 0.3048,0 0.550355,-0.2450377 0.550355,-0.5498372 V 5.7445622 c 0,-0.3047995 -0.245555,-0.5498375 -0.550355,-0.5498375 h -0.276984 -0.584978 z" />
    </g>
  </g>
</svg>
