<?xml version="1.0" encoding="UTF-8"?>
<svg xmlns="http://www.w3.org/2000/svg" id="Layer_1" data-name="Layer 1" viewBox="0 0 24 24" width="512" height="512"><path d="m23.361,13.284l.604-1.284-.604-1.284c-.861-1.83-4.224-7.801-11.361-7.801-1.986,0-3.844.47-5.536,1.398L2.161.01.04,2.131l21.8,21.8,2.121-2.121-3.935-3.935c1.865-1.74,2.927-3.721,3.336-4.591Zm-11.361-7.369c5.371,0,7.976,4.652,8.646,6.078l.003.007-.003.007c-.335.711-1.212,2.349-2.744,3.745l-2.211-2.211c.606-1.452.318-3.188-.864-4.37s-2.918-1.469-4.37-.864l-1.75-1.75c1.028-.427,2.129-.643,3.291-.643Zm-9.36,1.652l12.959,12.959c-1.142.371-2.344.559-3.599.559-.026,0-.05-.004-.076-.004L.948,10.105c.363-.675.92-1.588,1.692-2.538ZM.053,12.038l8.544,8.544c-4.831-1.469-7.249-5.789-7.958-7.298L.053,12.038Z"/></svg>
