<?xml version="1.0" encoding="UTF-8" standalone="no"?>
<svg
   xmlns:dc="http://purl.org/dc/elements/1.1/"
   xmlns:cc="http://creativecommons.org/ns#"
   xmlns:rdf="http://www.w3.org/1999/02/22-rdf-syntax-ns#"
   xmlns:svg="http://www.w3.org/2000/svg"
   xmlns="http://www.w3.org/2000/svg"
   xmlns:xlink="http://www.w3.org/1999/xlink"
   xmlns:sodipodi="http://sodipodi.sourceforge.net/DTD/sodipodi-0.dtd"
   xmlns:inkscape="http://www.inkscape.org/namespaces/inkscape"
   height="32"
   width="32"
   version="1.1"
   id="svg133"
   sodipodi:docname="paste-web.svg"
   inkscape:version="1.0.2 (e86c870879, 2021-01-15)">
  <metadata
     id="metadata139">
    <rdf:RDF>
      <cc:Work
         rdf:about="">
        <dc:format>image/svg+xml</dc:format>
        <dc:type
           rdf:resource="http://purl.org/dc/dcmitype/StillImage" />
      </cc:Work>
    </rdf:RDF>
  </metadata>
  <defs
     id="defs137">
    <linearGradient
       inkscape:collect="always"
       id="linearGradient1281">
      <stop
         style="stop-color:#00ff00;stop-opacity:1"
         offset="0"
         id="stop1277" />
      <stop
         style="stop-color:#07810a;stop-opacity:1"
         offset="1"
         id="stop1279" />
    </linearGradient>
    <linearGradient
       inkscape:collect="always"
       id="linearGradient1269">
      <stop
         style="stop-color:#0643b1;stop-opacity:1;"
         offset="0"
         id="stop1265" />
      <stop
         style="stop-color:#80a5e7;stop-opacity:0.99361438"
         offset="1"
         id="stop1267" />
    </linearGradient>
    <linearGradient
       inkscape:collect="always"
       id="linearGradient1251">
      <stop
         style="stop-color:#ffffff;stop-opacity:0.69637769"
         offset="0"
         id="stop1247" />
      <stop
         style="stop-color:#ffffff;stop-opacity:0;"
         offset="1"
         id="stop1249" />
    </linearGradient>
    <radialGradient
       inkscape:collect="always"
       xlink:href="#linearGradient1251"
       id="radialGradient1255"
       cx="59.830154"
       cy="28.577196"
       fx="59.830154"
       fy="28.577196"
       r="5.7801523"
       gradientUnits="userSpaceOnUse"
       gradientTransform="matrix(0.51156631,-0.82175663,0.84894298,0.52848446,-2.0804313,54.555277)" />
    <radialGradient
       inkscape:collect="always"
       xlink:href="#linearGradient1269"
       id="radialGradient1271"
       cx="50.265007"
       cy="27.951157"
       fx="50.265007"
       fy="27.951157"
       r="5.7801523"
       gradientUnits="userSpaceOnUse"
       gradientTransform="matrix(1.2718785,-1.2817016,1.2738113,1.264048,-48.545731,53.74626)" />
    <linearGradient
       inkscape:collect="always"
       xlink:href="#linearGradient1281"
       id="linearGradient1275"
       x1="54.582039"
       y1="20.4317"
       x2="52.17487"
       y2="26.608009"
       gradientUnits="userSpaceOnUse" />
  </defs>
  <sodipodi:namedview
     pagecolor="#ffffff"
     bordercolor="#666666"
     borderopacity="1"
     objecttolerance="10"
     gridtolerance="10"
     guidetolerance="10"
     inkscape:pageopacity="0"
     inkscape:pageshadow="2"
     inkscape:window-width="1920"
     inkscape:window-height="1019"
     id="namedview135"
     showgrid="false"
     inkscape:zoom="16"
     inkscape:cx="33.453451"
     inkscape:cy="22.39218"
     inkscape:window-x="0"
     inkscape:window-y="0"
     inkscape:window-maximized="1"
     inkscape:current-layer="svg133"
     inkscape:document-rotation="0" />
  <linearGradient
     id="a"
     gradientTransform="matrix(0.39222363,0,0,-0.36562471,5.827819,30.163568)"
     gradientUnits="userSpaceOnUse"
     x1="27.974298"
     x2="27.974298"
     y1="36.127529"
     y2="-1.183923">
    <stop
       offset="0"
       stop-color="#d1ff82"
       id="stop2" />
    <stop
       offset=".26238"
       stop-color="#9bdb4d"
       id="stop4" />
    <stop
       offset=".66093999"
       stop-color="#68b723"
       id="stop6" />
    <stop
       offset="1"
       stop-color="#3a9104"
       id="stop8" />
  </linearGradient>
  <radialGradient
     id="b"
     cx="24.837126"
     cy="36.421127"
     gradientTransform="matrix(-0.38351555,0,0,-0.25567694,23.275669,36.384178)"
     gradientUnits="userSpaceOnUse"
     r="15.644737"
     xlink:href="#c" />
  <linearGradient
     id="c">
    <stop
       offset="0"
       id="stop12" />
    <stop
       offset="1"
       stop-opacity="0"
       id="stop14" />
  </linearGradient>
  <linearGradient
     id="d"
     gradientTransform="matrix(.0352071 0 0 .0082353 -.724852 26.980547)"
     gradientUnits="userSpaceOnUse"
     x1="302.85715"
     x2="302.85715"
     xlink:href="#e"
     y1="366.64789"
     y2="609.50507" />
  <linearGradient
     id="e">
    <stop
       offset="0"
       stop-opacity="0"
       id="stop18" />
    <stop
       offset=".5"
       id="stop20" />
    <stop
       offset="1"
       stop-opacity="0"
       id="stop22" />
  </linearGradient>
  <radialGradient
     id="f"
     cx="605.71429"
     cy="486.64789"
     gradientTransform="matrix(-.01204859 0 0 .0082353 10.761206 26.980564)"
     gradientUnits="userSpaceOnUse"
     r="117.14286"
     xlink:href="#c" />
  <radialGradient
     id="g"
     cx="605.71429"
     cy="486.64789"
     gradientTransform="matrix(.01204859 0 0 .0082353 13.238793 26.980564)"
     gradientUnits="userSpaceOnUse"
     r="117.14286"
     xlink:href="#c" />
  <linearGradient
     id="h"
     gradientTransform="matrix(.48571543 0 0 .45629666 .342829 8.348862)"
     gradientUnits="userSpaceOnUse"
     x1="25.132275"
     x2="25.132275"
     y1=".985206"
     y2="47.013336">
    <stop
       offset="0"
       stop-color="#f4f4f4"
       id="stop27" />
    <stop
       offset="1"
       stop-color="#dbdbdb"
       id="stop29" />
  </linearGradient>
  <linearGradient
     id="i"
     gradientTransform="matrix(.40540511 0 0 .51351351 2.269687 7.675681)"
     gradientUnits="userSpaceOnUse"
     x1="23.99999"
     x2="23.99999"
     y1="5.56415"
     y2="43">
    <stop
       offset="0"
       stop-color="#fff"
       id="stop32" />
    <stop
       offset=".03626217"
       stop-color="#fff"
       stop-opacity=".235294"
       id="stop34" />
    <stop
       offset=".95056331"
       stop-color="#fff"
       stop-opacity=".156863"
       id="stop36" />
    <stop
       offset="1"
       stop-color="#fff"
       stop-opacity=".392157"
       id="stop38" />
  </linearGradient>
  <linearGradient
     id="j"
     gradientTransform="matrix(0,-0.39571558,0.42801014,0,7.403311,31.903618)"
     gradientUnits="userSpaceOnUse"
     x1="45.243652"
     x2="20.576487"
     y1="15.41246"
     y2="15.991243">
    <stop
       offset="0"
       stop-color="#fff"
       id="stop41" />
    <stop
       offset=".51153916"
       stop-color="#fff"
       stop-opacity=".235294"
       id="stop43" />
    <stop
       offset=".58522105"
       stop-color="#fff"
       stop-opacity=".156863"
       id="stop45" />
    <stop
       offset="1"
       stop-color="#fff"
       stop-opacity=".392157"
       id="stop47" />
  </linearGradient>
  <linearGradient
     id="k"
     gradientTransform="matrix(.04576928 0 0 .00823529 1.457689 36.980548)"
     gradientUnits="userSpaceOnUse"
     x1="302.85715"
     x2="302.85715"
     xlink:href="#e"
     y1="366.64789"
     y2="609.50507" />
  <radialGradient
     id="l"
     cx="605.71429"
     cy="486.64789"
     gradientTransform="matrix(-.01566318 0 0 .00823529 16.389579 36.980565)"
     gradientUnits="userSpaceOnUse"
     r="117.14286"
     xlink:href="#c" />
  <radialGradient
     id="m"
     cx="605.71429"
     cy="486.64789"
     gradientTransform="matrix(.01566318 0 0 .00823529 19.610446 36.980565)"
     gradientUnits="userSpaceOnUse"
     r="117.14286"
     xlink:href="#c" />
  <linearGradient
     id="n"
     gradientTransform="matrix(.66666676 0 0 .75000006 -2.833335 1.89157)"
     gradientUnits="userSpaceOnUse"
     x1="25.5"
     x2="26"
     y1="-13.625"
     y2="-39.125">
    <stop
       offset="0"
       stop-color="#e2b369"
       id="stop53" />
    <stop
       offset="1"
       stop-color="#c79b55"
       id="stop55" />
  </linearGradient>
  <linearGradient
     id="o"
     gradientTransform="matrix(.64285684 0 0 .73333321 -2.249997 1.483231)"
     gradientUnits="userSpaceOnUse"
     x1="14.388891"
     x2="14.388891"
     y1="-8.840771"
     y2="-40.204414">
    <stop
       offset="0"
       stop-color="#fff"
       id="stop58" />
    <stop
       offset=".06249999"
       stop-color="#fff"
       stop-opacity=".235294"
       id="stop60" />
    <stop
       offset=".96279675"
       stop-color="#fff"
       stop-opacity=".156863"
       id="stop62" />
    <stop
       offset="1"
       stop-color="#fff"
       stop-opacity=".392157"
       id="stop64" />
  </linearGradient>
  <linearGradient
     id="p"
     gradientUnits="userSpaceOnUse"
     x1="16"
     x2="16"
     y1="-.016569"
     y2="9.983431">
    <stop
       offset="0"
       stop-color="#fff"
       id="stop67" />
    <stop
       offset=".06562372"
       stop-color="#ddd"
       id="stop69" />
    <stop
       offset=".66093999"
       stop-color="#abacae"
       id="stop71" />
    <stop
       offset="1"
       stop-color="#89898b"
       id="stop73" />
  </linearGradient>
  <linearGradient
     id="q"
     gradientUnits="userSpaceOnUse"
     x1="15.498007"
     x2="15.498007"
     xlink:href="#r"
     y1="1.981475"
     y2="5.983432" />
  <linearGradient
     id="r">
    <stop
       offset="0"
       stop-color="#fff"
       id="stop77" />
    <stop
       offset="1"
       stop-color="#fff"
       stop-opacity="0"
       id="stop79" />
  </linearGradient>
  <linearGradient
     id="s"
     gradientTransform="matrix(.60000001 0 0 .80000004 1.2 -.316569)"
     gradientUnits="userSpaceOnUse"
     x1="20"
     x2="20"
     xlink:href="#r"
     y1="3"
     y2="7" />
  <rect
     display="block"
     fill="url(#n)"
     height="24"
     rx="1.5"
     stroke="#66430b"
     stroke-opacity=".498039"
     transform="scale(1 -1)"
     width="20"
     x="3.5"
     y="-28.483431"
     id="rect83" />
  <rect
     display="block"
     fill="none"
     height="21.999998"
     opacity=".5"
     rx=".5"
     stroke="url(#o)"
     transform="scale(1 -1)"
     width="18"
     x="4.5"
     y="-27.483429"
     id="rect85" />
  <path
     d="m18.5 7.483431c.97227.04419 1-1 1-1l-2-2 .00007-1s-.0304-1.955806-2-2l-4 .03108c-2.0963 0-2.00906 2.001117-2.00906 2.001117l.009.967803-2 2s.11613.955805.99999.999999z"
     display="block"
     fill="url(#p)"
     stroke="#000"
     stroke-opacity=".345098"
     id="path87" />
  <path
     d="m11 5.983432v-2c-.0394-.631556.20798-1.033615 1-1h3c.46307.07386.94201.11598 1 1v2l-1-2h-3z"
     fill="url(#q)"
     id="path89" />
  <g
     fill="none"
     id="g101">
    <g
       stroke-linecap="round"
       id="g97">
      <path
         d="m8.507121 6.483431h10"
         opacity=".4"
         stroke="#fff"
         id="path91" />
      <rect
         height="4"
         opacity=".4"
         rx="1"
         stroke="url(#s)"
         width="6"
         x="10.5"
         y="2.483431"
         id="rect93" />
      <path
         d="m9.507121 5.483431h8"
         opacity=".1"
         stroke="#000"
         id="path95" />
    </g>
    <path
       d="m11.5 27.983431v-19.5s0-.9375 1-1h10.5"
       opacity=".05"
       stroke="#000"
       stroke-linejoin="round"
       id="path99" />
  </g>
  <g
     transform="translate(-2 -12.016569)"
     id="g109">
    <path
       d="m6.950003 40h22.100021v2h-22.100021z"
       fill="url(#k)"
       opacity=".15"
       id="path103" />
    <path
       d="m6.950002 40.000086v1.99989c-.806615.0038-1.950002-.448074-1.950002-1.000074s.900121-.999816 1.950002-.999816z"
       fill="url(#l)"
       opacity=".15"
       id="path105" />
    <path
       d="m29.050024 40.000086v1.99989c.806614.0038 1.950002-.448074 1.950002-1.000074s-.900122-.999816-1.950002-.999816z"
       fill="url(#m)"
       opacity=".15"
       id="path107" />
  </g>
  <g
     transform="translate(9 -1)"
     id="g121">
    <path
       d="m3.500001 30h16.999998v2h-16.999998z"
       fill="url(#d)"
       opacity=".15"
       id="path111" />
    <path
       d="m3.4999999 30.000085v1.999891c-.6204724.0038-1.4999999-.448075-1.4999999-1.000075 0-.551999.6924-.999816 1.4999999-.999816z"
       fill="url(#f)"
       opacity=".15"
       id="path113" />
    <path
       d="m20.5 30.000085v1.999891c.620472.0038 1.5-.448075 1.5-1.000075 0-.551999-.692402-.999816-1.5-.999816z"
       fill="url(#g)"
       opacity=".15"
       id="path115" />
    <path
       d="m3.4999601 9.4999569c3.8955809 0 17.0000589.00136 17.0000589.00136l.000021 20.9987161s-11.3333862 0-17.0000799 0c0-7.000018 0-14.000035 0-21.0000538z"
       fill="url(#h)"
       stroke="#000"
       stroke-linejoin="round"
       stroke-opacity=".345098"
       stroke-width=".999922"
       id="path117" />
    <path
       d="m19.5 29.5h-15.0000004v-19h15.0000004z"
       fill="none"
       stroke="url(#i)"
       stroke-linecap="round"
       id="path119" />
  </g>
  <g
     id="g926">
    <path
       d="m 7.750245,27.072131 a 6,4.0000002 0 1 1 12,0 6,4.0000002 0 0 1 -12,0 z"
       fill="url(#b)"
       fill-rule="evenodd"
       opacity="0.141176"
       id="path123"
       style="fill:url(#b)" />
    <path
       d="m 11.832248,16.017552 c -4.9802216,3.367056 -2.0511186,9.550728 3.5,9.5 v 3.000485 l 7,-5 -7,-5 v 2.976351 c -3.580248,0.139062 -5.5595156,-3.12742 -3,-5.476836 z"
       display="block"
       fill="url(#a)"
       id="path125"
       style="fill:url(#a)" />
    <g
       fill="none"
       id="g131"
       transform="translate(0,4)">
      <path
         d="m 10.875586,13.759279 c -1.7568516,2.058862 -0.225017,7.434574 5.395063,6.699241 l 0.0616,2.197396 4.369328,-3.137879 -4.369328,-3.064428 v 2.059765 c -6.167442,0.329165 -5.981488,-3.921804 -5.456663,-4.754095 z"
         display="block"
         opacity="0.8"
         stroke="url(#j)"
         stroke-miterlimit="7"
         stroke-width="0.964"
         id="path127"
         style="stroke:url(#j)" />
      <path
         d="m 11.832248,12.017552 c -4.9802216,3.367056 -2.0511186,9.550728 3.5,9.5 v 3.000485 l 6.999999,-5 -6.999999,-5 v 2.976351 c -3.580248,0.139062 -5.5595156,-3.12742 -3,-5.476836 z"
         opacity="0.5"
         stroke="#206b00"
         stroke-linecap="round"
         stroke-linejoin="round"
         id="path129" />
    </g>
  </g>
  <g
     id="g1287"
     transform="matrix(1.63047,0,0,1.63047,-62.179748,-29.208613)">
    <circle
       style="fill:url(#radialGradient1271);fill-opacity:1;stroke:none;stroke-width:0.0955349;stroke-miterlimit:4;stroke-dasharray:none;stop-color:#000000"
       id="path1183"
       cx="51.206985"
       cy="24.32"
       r="5.7801523" />
    <path
       id="path1023-6-7"
       style="fill:#000000;fill-opacity:0.578992;stroke-width:0.135;stroke-miterlimit:4;stroke-dasharray:none"
       d="m 51.113287,18.662153 a 5.750761,5.750761 0 0 0 -0.642578,0.03711 c 0.0313,0.06919 0.07091,0.145995 0.09766,0.191406 0.02453,0.04186 0.07019,0.06916 0.08984,0.115234 0.02236,0.05229 -0.02902,0.116981 0.03711,0.152344 0.10216,0.05461 0.3993,-0.299703 0.470704,-0.357422 0.06549,-0.05294 0.100048,-0.09226 0.113281,-0.134765 a 5.750761,5.750761 0 0 0 -0.166016,-0.0039 z m -1.076172,0.103516 a 5.750761,5.750761 0 0 0 -3.003906,1.595703 c -0.0086,0.01722 -0.01269,0.03669 -0.02344,0.05273 -0.06218,0.09278 -0.149936,0.151323 -0.230469,0.21875 a 5.750761,5.750761 0 0 0 -0.113281,0.136719 c -0.06701,0.106649 -0.12978,0.239003 -0.15625,0.345703 -0.0332,0.133594 -0.01353,0.294549 -0.06055,0.427735 -0.05961,0.169228 -0.166673,0.270606 -0.146485,0.466797 0.235753,0.06991 0.133403,-0.349551 0.332032,-0.371094 0.06301,0.156356 0.02186,0.448829 0.0039,0.61914 -0.02466,0.234398 -0.0716,0.290849 0.06836,0.492188 0.110831,0.159472 0.1488,0.267769 0.363281,0.292969 0.196731,0.02317 0.277405,0.111229 0.359376,0.300781 0.151612,0.03225 0.244025,0.05659 0.263671,0.224609 0.06571,0.03645 0.188307,0.155537 0.257813,0.173829 0.100538,0.02642 0.268439,-0.116288 0.363281,-0.0059 0.158524,0.184403 -0.199449,0.665785 -0.263672,0.832031 -0.09404,0.243341 -0.107423,0.600608 0.123047,0.775391 0.118418,0.08969 0.242771,0.132198 0.28125,0.294922 0.03563,0.150529 0.0095,0.275839 0.07617,0.417969 0.104056,0.221797 0.342221,0.295074 0.511719,0.464843 0.22234,0.222611 0.207031,0.512975 0.207031,0.828125 0,0.330055 0.124341,0.580669 0.167969,0.882813 0.04498,0.311627 0.137548,0.601013 0.203125,0.902344 0.04931,0.226675 0.244169,0.569504 0.527344,0.523437 0.01965,-0.107308 -0.09151,-0.19274 -0.105469,-0.298828 -0.01273,-0.09674 0.01344,-0.197402 -0.0059,-0.300781 -0.03821,-0.204861 -0.03616,-0.323783 0.09961,-0.501953 0.04796,-0.06287 0.114473,-0.116685 0.164062,-0.179688 0.09607,-0.122212 0.02178,-0.08475 0.01758,-0.21875 -0.0051,-0.16706 0.04582,-0.08456 0.146485,-0.136719 0.05229,-0.0271 0.110285,-0.108931 0.15039,-0.15039 0.08807,-0.09159 0.224953,-0.202019 0.292969,-0.310547 0.07642,-0.122077 0.06623,-0.291828 0.144531,-0.417969 0.08997,-0.144703 0.218015,-0.145798 0.34375,-0.240234 0.162994,-0.122212 0.09533,-0.250367 0.125,-0.417969 0.04973,-0.280329 0.176836,-0.589348 0.353516,-0.8125 0.222339,-0.281007 0.317581,-0.519301 0.04687,-0.789063 -0.133729,-0.133321 -0.203366,-0.09819 -0.380859,-0.144531 -0.135219,-0.0355 -0.256873,-0.133454 -0.394532,-0.15039 -0.08237,-0.01016 -0.131563,0.01783 -0.207031,-0.002 -0.07019,-0.01843 -0.06065,-0.0594 -0.134765,-0.05859 -0.110425,0.0013 -0.266158,0.230992 -0.359376,0.08398 -0.05189,-0.08197 0.106653,-0.308086 0.09961,-0.417969 -0.0088,-0.134813 -0.05931,-0.355844 -0.191406,-0.429687 -0.04999,-0.02791 -0.161415,-0.03112 -0.222657,-0.05469 -0.07208,-0.02778 -0.142538,-0.07183 -0.207031,-0.113281 -0.08414,-0.05393 -0.245944,-0.149489 -0.283203,-0.246094 -0.103379,-0.004 -0.174157,-0.06009 -0.279297,-0.05859 -0.0943,0.0012 -0.155788,0.04472 -0.257812,0.0332 -0.08929,-0.01 -0.18687,-0.08177 -0.283204,-0.06836 -0.06422,0.009 -0.159292,0.09357 -0.214843,0.125 -0.146736,0.08279 -0.302392,0.141526 -0.464844,0.171875 -0.25147,0.04715 -0.296018,-0.04847 -0.28125,-0.28125 l -0.03906,-0.07422 c 0.09349,-0.259736 -0.07441,-0.278659 -0.259765,-0.341797 -0.02561,-0.184944 0.202536,-0.316702 0.107422,-0.519531 -0.192532,-0.0099 -0.403547,0.531273 -0.566407,0.296874 -0.107444,-0.154728 0.05582,-0.587594 0.150391,-0.71875 0.09525,-0.132238 0.442204,-0.37003 0.605469,-0.390624 0.12709,-0.01585 0.238332,0.04096 0.287109,0.152343 0.05324,0.121399 -0.01531,0.235525 0,0.373047 0.162317,-0.03753 0.11851,-0.244774 0.111328,-0.355469 -0.01178,-0.184809 0.08539,-0.171365 0.179688,-0.304687 0.0859,-0.121401 0.09999,-0.259618 0.207031,-0.376953 0.08346,-0.09146 0.181982,-0.18721 0.273438,-0.271485 0.104463,-0.0962 0.220952,-0.08734 0.328125,-0.158203 0.16286,-0.107715 -0.05245,-0.308143 0.1875,-0.292969 0.08536,0.0055 0.04312,0.0588 0.15625,0.0332 0.04796,-0.01098 0.137234,-0.05585 0.1875,-0.07617 0.228979,-0.09309 0.06608,-0.117155 -0.03906,-0.238282 -0.133594,-0.154053 0.05543,-0.127221 0.19336,-0.15039 0.10121,-0.01708 0.07909,-0.04972 0.167968,0.0098 0.07831,0.05243 0.03268,0.121116 0.146485,0.117187 0.21692,-0.0073 0.06789,-0.224659 0.01953,-0.296875 -0.08265,-0.123567 -0.10465,-0.208149 -0.279297,-0.212891 0.01653,-0.05541 0.01867,-0.130074 -0.0059,-0.183593 -0.147007,0.01938 -0.171965,-0.08676 -0.283204,-0.128907 -0.187381,-0.07099 -0.157688,0.08277 -0.234374,0.1875 -0.07912,0.107986 -0.229119,0.08901 -0.28711,0.220703 -0.06029,0.136981 -0.0043,0.24052 -0.224609,0.203126 0.02994,-0.08252 0.02119,-0.187323 0.01563,-0.275391 -0.06395,-0.0082 -0.122296,-0.02372 -0.181641,-0.04297 2.71e-4,-0.220307 0.244315,-0.238764 0.410156,-0.259766 0.185757,-0.02343 0.24627,-0.212301 0.41211,-0.24414 0.154866,-0.02968 0.264171,0.219593 0.455078,0.07422 0.108934,-0.08292 0.05936,-0.131134 0.01953,-0.210938 -0.0058,-0.01157 -0.02471,-0.03036 -0.04297,-0.04883 z m 2.703125,0.132813 c 0.01841,0.02373 0.0361,0.0465 0.05469,0.07227 0.07912,0.109882 0.128677,0.208901 0.271484,0.257813 0.08265,0.02832 0.348028,0.0222 0.238282,0.210937 -0.101347,0.174106 -0.214546,-0.0545 -0.265626,-0.109375 -0.07072,-0.07587 -0.279941,-0.15876 -0.273437,0.01563 0.0098,0.259327 0.594213,0.217016 0.46875,0.501953 0.06991,0.04133 0.208309,0.108915 0.185547,0.210938 -0.02805,0.126142 -0.190752,0.0458 -0.1875,0.207031 0.0046,0.228165 0.253094,0.416227 0.484375,0.333984 0.246593,-0.08752 0.06126,-0.429751 0.34375,-0.464843 0.111373,-0.01382 0.175669,0.01867 0.275391,0.09766 0.08129,0.06436 0.134043,0.210599 0.246093,0.199219 0.01165,-0.06951 -0.03988,-0.119642 -0.04883,-0.183594 0.08671,0.02155 0.260822,0.131563 0.310547,0.207031 0.07534,0.114218 0.066,0.278274 0.25,0.13086 -0.0275,-0.02263 -0.03966,-0.07377 -0.05469,-0.0918 0.235346,8.13e-4 0.398789,0.09855 0.5,0.302734 0.225727,0.456061 -0.327963,0.09438 -0.355468,0.332031 -0.136573,-0.04336 -0.197989,-0.15499 -0.316406,-0.220703 -0.05623,-0.03116 -0.160039,-0.01322 -0.203126,-0.04492 -0.05934,-0.04336 -0.0455,-0.123201 -0.09766,-0.166015 -0.204996,-0.168145 -0.672861,0.104362 -0.861328,0.21289 -0.05108,0.0294 -0.103851,0.0326 -0.138672,0.08789 -0.05989,0.09471 0.02266,0.118691 0.0039,0.207031 -0.02669,0.126276 -0.190372,0.183945 -0.240234,0.285156 -0.119637,0.24307 0.122501,0.591568 0.08984,0.861328 -0.01815,0.149717 -0.179242,0.312172 -0.117188,0.4375 0.0267,0.05393 0.120616,0.100376 0.15625,0.164063 0.03238,0.05772 0.04535,0.133472 0.08789,0.193359 0.138201,0.194158 0.336272,0.408423 0.498047,0.589844 0.092,0.102973 0.21868,0.132105 0.357422,0.103516 0.114489,-0.02358 0.288442,-0.06039 0.394531,-0.111328 0.141858,-0.06788 0.15969,-0.164373 0.308594,-0.09961 0.118689,0.05162 0.222857,0.203318 0.361328,0.07813 0.114218,0.111644 -0.01164,0.305444 -0.03711,0.429688 -0.03265,0.159337 0.03095,0.298103 0.128906,0.433593 0.11747,0.162453 0.143257,0.191013 0.11914,0.408204 -0.0187,0.169226 -0.06135,0.322497 -0.09766,0.490234 -0.03482,0.160285 -0.136279,0.283221 -0.130859,0.453125 0.0052,0.156763 0.07332,0.283028 0.05273,0.451172 -0.0183,0.148091 -0.0278,0.323639 -0.06641,0.46875 -0.0397,0.148497 -0.145284,0.279621 -0.189453,0.431641 -0.04201,0.144704 -0.0288,0.33221 0.07227,0.451171 0.105276,0.123839 0.20833,0.05457 0.332032,-0.03906 0.243613,-0.185079 0.355803,-0.500561 0.517578,-0.75 0.134599,-0.207524 0.262028,-0.402308 0.367187,-0.609375 a 5.750761,5.750761 0 0 0 0.328125,-1.91211 5.750761,5.750761 0 0 0 -4.123047,-5.515624 z" />
    <path
       id="path1023-6"
       style="fill:url(#linearGradient1275);fill-opacity:1;stroke-width:0.13549"
       d="m 51.207031,18.568359 a 5.750761,5.750761 0 0 0 -0.642578,0.03711 c 0.0313,0.06919 0.07091,0.145995 0.09766,0.191406 0.02453,0.04186 0.07019,0.06916 0.08984,0.115234 0.02236,0.05229 -0.02902,0.116981 0.03711,0.152344 0.10216,0.05461 0.3993,-0.299703 0.470704,-0.357422 0.06549,-0.05294 0.100048,-0.09226 0.113281,-0.134765 a 5.750761,5.750761 0 0 0 -0.166016,-0.0039 z m -1.076172,0.103516 a 5.750761,5.750761 0 0 0 -3.003906,1.595703 c -0.0086,0.01722 -0.01269,0.03669 -0.02344,0.05273 -0.06218,0.09278 -0.149936,0.151323 -0.230469,0.21875 a 5.750761,5.750761 0 0 0 -0.113281,0.136719 c -0.06701,0.106649 -0.12978,0.239003 -0.15625,0.345703 -0.0332,0.133594 -0.01353,0.294549 -0.06055,0.427735 -0.05961,0.169228 -0.166673,0.270606 -0.146485,0.466797 0.235753,0.06991 0.133403,-0.349551 0.332032,-0.371094 0.06301,0.156356 0.02186,0.448829 0.0039,0.61914 -0.02466,0.234398 -0.0716,0.290849 0.06836,0.492188 0.110831,0.159472 0.1488,0.267769 0.363281,0.292969 0.196731,0.02317 0.277405,0.111229 0.359376,0.300781 0.151612,0.03225 0.244025,0.05659 0.263671,0.224609 0.06571,0.03645 0.188307,0.155537 0.257813,0.173829 0.100538,0.02642 0.268439,-0.116288 0.363281,-0.0059 0.158524,0.184403 -0.199449,0.665785 -0.263672,0.832031 -0.09404,0.243341 -0.107423,0.600608 0.123047,0.775391 0.118418,0.08969 0.242771,0.132198 0.28125,0.294922 0.03563,0.150529 0.0095,0.275839 0.07617,0.417969 0.104056,0.221797 0.342221,0.295074 0.511719,0.464843 0.22234,0.222611 0.207031,0.512975 0.207031,0.828125 0,0.330055 0.124341,0.580669 0.167969,0.882813 0.04498,0.311627 0.137548,0.601013 0.203125,0.902344 0.04931,0.226675 0.244169,0.569504 0.527344,0.523437 0.01965,-0.107308 -0.09151,-0.19274 -0.105469,-0.298828 -0.01273,-0.09674 0.01344,-0.197402 -0.0059,-0.300781 -0.03821,-0.204861 -0.03616,-0.323783 0.09961,-0.501953 0.04796,-0.06287 0.114473,-0.116685 0.164062,-0.179688 0.09607,-0.122212 0.02178,-0.08475 0.01758,-0.21875 -0.0051,-0.16706 0.04582,-0.08456 0.146485,-0.136719 0.05229,-0.0271 0.110285,-0.108931 0.15039,-0.15039 0.08807,-0.09159 0.224953,-0.202019 0.292969,-0.310547 0.07642,-0.122077 0.06623,-0.291828 0.144531,-0.417969 0.08997,-0.144703 0.218015,-0.145798 0.34375,-0.240234 0.162994,-0.122212 0.09533,-0.250367 0.125,-0.417969 0.04973,-0.280329 0.176836,-0.589348 0.353516,-0.8125 0.222339,-0.281007 0.317581,-0.519301 0.04687,-0.789063 -0.133729,-0.133321 -0.203366,-0.09819 -0.380859,-0.144531 -0.135219,-0.0355 -0.256873,-0.133454 -0.394532,-0.15039 -0.08237,-0.01016 -0.131563,0.01783 -0.207031,-0.002 -0.07019,-0.01843 -0.06065,-0.0594 -0.134765,-0.05859 -0.110425,0.0013 -0.266158,0.230992 -0.359376,0.08398 -0.05189,-0.08197 0.106653,-0.308086 0.09961,-0.417969 -0.0088,-0.134813 -0.05931,-0.355844 -0.191406,-0.429687 -0.04999,-0.02791 -0.161415,-0.03112 -0.222657,-0.05469 -0.07208,-0.02778 -0.142538,-0.07183 -0.207031,-0.113281 -0.08414,-0.05393 -0.245944,-0.149489 -0.283203,-0.246094 -0.103379,-0.004 -0.174157,-0.06009 -0.279297,-0.05859 -0.0943,0.0012 -0.155788,0.04472 -0.257812,0.0332 -0.08929,-0.01 -0.18687,-0.08177 -0.283204,-0.06836 -0.06422,0.009 -0.159292,0.09357 -0.214843,0.125 -0.146736,0.08279 -0.302392,0.141526 -0.464844,0.171875 -0.25147,0.04715 -0.296018,-0.04847 -0.28125,-0.28125 l -0.03906,-0.07422 c 0.09349,-0.259736 -0.07441,-0.278659 -0.259765,-0.341797 -0.02561,-0.184944 0.202536,-0.316702 0.107422,-0.519531 -0.192532,-0.0099 -0.403547,0.531273 -0.566407,0.296874 -0.107444,-0.154728 0.05582,-0.587594 0.150391,-0.71875 0.09525,-0.132238 0.442204,-0.37003 0.605469,-0.390624 0.12709,-0.01585 0.238332,0.04096 0.287109,0.152343 0.05324,0.121399 -0.01531,0.235525 0,0.373047 0.162317,-0.03753 0.11851,-0.244774 0.111328,-0.355469 -0.01178,-0.184809 0.08539,-0.171365 0.179688,-0.304687 0.0859,-0.121401 0.09999,-0.259618 0.207031,-0.376953 0.08346,-0.09146 0.181982,-0.18721 0.273438,-0.271485 0.104463,-0.0962 0.220952,-0.08734 0.328125,-0.158203 0.16286,-0.107715 -0.05245,-0.308143 0.1875,-0.292969 0.08536,0.0055 0.04312,0.0588 0.15625,0.0332 0.04796,-0.01098 0.137234,-0.05585 0.1875,-0.07617 0.228979,-0.09309 0.06608,-0.117155 -0.03906,-0.238282 -0.133594,-0.154053 0.05543,-0.127221 0.19336,-0.15039 0.10121,-0.01708 0.07909,-0.04972 0.167968,0.0098 0.07831,0.05243 0.03268,0.121116 0.146485,0.117187 0.21692,-0.0073 0.06789,-0.224659 0.01953,-0.296875 -0.08265,-0.123567 -0.10465,-0.208149 -0.279297,-0.212891 0.01653,-0.05541 0.01867,-0.130074 -0.0059,-0.183593 -0.147007,0.01938 -0.171965,-0.08676 -0.283204,-0.128907 -0.187381,-0.07099 -0.157688,0.08277 -0.234374,0.1875 -0.07912,0.107986 -0.229119,0.08901 -0.28711,0.220703 -0.06029,0.136981 -0.0043,0.24052 -0.224609,0.203126 0.02994,-0.08252 0.02119,-0.187323 0.01563,-0.275391 -0.06395,-0.0082 -0.122296,-0.02372 -0.181641,-0.04297 2.71e-4,-0.220307 0.244315,-0.238764 0.410156,-0.259766 0.185757,-0.02343 0.24627,-0.212301 0.41211,-0.24414 0.154866,-0.02968 0.264171,0.219593 0.455078,0.07422 0.108934,-0.08292 0.05936,-0.131134 0.01953,-0.210938 -0.0058,-0.01157 -0.02471,-0.03036 -0.04297,-0.04883 z m 2.703125,0.132813 c 0.01841,0.02373 0.0361,0.0465 0.05469,0.07227 0.07912,0.109882 0.128677,0.208901 0.271484,0.257813 0.08265,0.02832 0.348028,0.0222 0.238282,0.210937 -0.101347,0.174106 -0.214546,-0.0545 -0.265626,-0.109375 -0.07072,-0.07587 -0.279941,-0.15876 -0.273437,0.01563 0.0098,0.259327 0.594213,0.217016 0.46875,0.501953 0.06991,0.04133 0.208309,0.108915 0.185547,0.210938 -0.02805,0.126142 -0.190752,0.0458 -0.1875,0.207031 0.0046,0.228165 0.253094,0.416227 0.484375,0.333984 0.246593,-0.08752 0.06126,-0.429751 0.34375,-0.464843 0.111373,-0.01382 0.175669,0.01867 0.275391,0.09766 0.08129,0.06436 0.134043,0.210599 0.246093,0.199219 0.01165,-0.06951 -0.03988,-0.119642 -0.04883,-0.183594 0.08671,0.02155 0.260822,0.131563 0.310547,0.207031 0.07534,0.114218 0.066,0.278274 0.25,0.13086 -0.0275,-0.02263 -0.03966,-0.07377 -0.05469,-0.0918 0.235346,8.13e-4 0.398789,0.09855 0.5,0.302734 0.225727,0.456061 -0.327963,0.09438 -0.355468,0.332031 -0.136573,-0.04336 -0.197989,-0.15499 -0.316406,-0.220703 -0.05623,-0.03116 -0.160039,-0.01322 -0.203126,-0.04492 -0.05934,-0.04336 -0.0455,-0.123201 -0.09766,-0.166015 -0.204996,-0.168145 -0.672861,0.104362 -0.861328,0.21289 -0.05108,0.0294 -0.103851,0.0326 -0.138672,0.08789 -0.05989,0.09471 0.02266,0.118691 0.0039,0.207031 -0.02669,0.126276 -0.190372,0.183945 -0.240234,0.285156 -0.119637,0.24307 0.122501,0.591568 0.08984,0.861328 -0.01815,0.149717 -0.179242,0.312172 -0.117188,0.4375 0.0267,0.05393 0.120616,0.100376 0.15625,0.164063 0.03238,0.05772 0.04535,0.133472 0.08789,0.193359 0.138201,0.194158 0.336272,0.408423 0.498047,0.589844 0.092,0.102973 0.21868,0.132105 0.357422,0.103516 0.114489,-0.02358 0.288442,-0.06039 0.394531,-0.111328 0.141858,-0.06788 0.15969,-0.164373 0.308594,-0.09961 0.118689,0.05162 0.222857,0.203318 0.361328,0.07813 0.114218,0.111644 -0.01164,0.305444 -0.03711,0.429688 -0.03265,0.159337 0.03095,0.298103 0.128906,0.433593 0.11747,0.162453 0.143257,0.191013 0.11914,0.408204 -0.0187,0.169226 -0.06135,0.322497 -0.09766,0.490234 -0.03482,0.160285 -0.136279,0.283221 -0.130859,0.453125 0.0052,0.156763 0.07332,0.283028 0.05273,0.451172 -0.0183,0.148091 -0.0278,0.323639 -0.06641,0.46875 -0.0397,0.148497 -0.145284,0.279621 -0.189453,0.431641 -0.04201,0.144704 -0.0288,0.33221 0.07227,0.451171 0.105276,0.123839 0.20833,0.05457 0.332032,-0.03906 0.243613,-0.185079 0.355803,-0.500561 0.517578,-0.75 0.134599,-0.207524 0.262028,-0.402308 0.367187,-0.609375 a 5.750761,5.750761 0 0 0 0.328125,-1.91211 5.750761,5.750761 0 0 0 -4.123047,-5.515624 z" />
    <circle
       style="fill:url(#radialGradient1255);fill-opacity:1;stroke:none;stroke-width:0.0956779;stroke-miterlimit:4;stroke-dasharray:none;stop-color:#000000"
       id="path1183-0"
       cx="51.206985"
       cy="24.32"
       r="5.7801523" />
  </g>
</svg>
