<?xml version="1.0" standalone="no"?>
<!DOCTYPE svg PUBLIC "-//W3C//DTD SVG 20010904//EN"
 "http://www.w3.org/TR/2001/REC-SVG-20010904/DTD/svg10.dtd">
<svg version="1.0" xmlns="http://www.w3.org/2000/svg"
 width="93.000000pt" height="60.000000pt" viewBox="0 0 93.000000 60.000000"
 preserveAspectRatio="xMidYMid meet">

<g transform="translate(0.000000,60.000000) scale(0.100000,-0.100000)"
fill="#000000" stroke="none">
<path d="M125 431 c-75 -19 -105 -54 -105 -122 0 -53 29 -91 90 -116 67 -28
91 -73 55 -103 -15 -13 -92 -10 -127 4 -12 6 -18 0 -23 -24 -9 -40 2 -51 60
-60 76 -11 135 4 174 46 31 33 33 40 29 86 -6 58 -19 74 -103 120 -62 35 -76
57 -54 85 10 12 26 14 70 10 59 -5 68 2 69 50 0 21 -87 36 -135 24z"/>
<path d="M405 428 c-125 -68 -155 -261 -56 -359 55 -55 121 -69 221 -48 50 11
55 16 44 55 -5 20 -11 21 -70 16 -76 -6 -119 9 -139 49 -30 57 -27 59 110 59
l125 0 0 57 c0 71 -29 135 -74 163 -37 22 -127 27 -161 8z m118 -76 c9 -10 20
-33 23 -50 l7 -32 -82 0 c-66 0 -81 3 -81 15 0 22 27 72 42 78 29 12 76 6 91
-11z"/>
<path d="M680 225 l0 -205 50 0 50 0 0 205 0 205 -50 0 -50 0 0 -205z"/>
<path d="M825 110 c-39 -43 15 -107 70 -82 19 9 25 19 25 45 0 18 -5 38 -12
45 -18 18 -63 14 -83 -8z"/>
</g>
</svg>
