<?xml version="1.0" encoding="UTF-8" standalone="no"?>
<svg
   xmlns:dc="http://purl.org/dc/elements/1.1/"
   xmlns:cc="http://creativecommons.org/ns#"
   xmlns:rdf="http://www.w3.org/1999/02/22-rdf-syntax-ns#"
   xmlns:svg="http://www.w3.org/2000/svg"
   xmlns="http://www.w3.org/2000/svg"
   xmlns:sodipodi="http://sodipodi.sourceforge.net/DTD/sodipodi-0.dtd"
   xmlns:inkscape="http://www.inkscape.org/namespaces/inkscape"
   width="297mm"
   height="210mm"
   viewBox="0 0 297 210"
   version="1.1"
   id="svg8"
   inkscape:version="1.0.2 (e86c870879, 2021-01-15)"
   sodipodi:docname="logo-sei.svg">
  <defs
     id="defs2" />
  <sodipodi:namedview
     id="base"
     pagecolor="#ffffff"
     bordercolor="#666666"
     borderopacity="1.0"
     inkscape:pageopacity="0.0"
     inkscape:pageshadow="2"
     inkscape:zoom="0.7"
     inkscape:cx="466.28043"
     inkscape:cy="367.3667"
     inkscape:document-units="mm"
     inkscape:current-layer="g6758"
     inkscape:document-rotation="0"
     showgrid="false"
     inkscape:window-width="1763"
     inkscape:window-height="1018"
     inkscape:window-x="0"
     inkscape:window-y="0"
     inkscape:window-maximized="0" />
  <metadata
     id="metadata5">
    <rdf:RDF>
      <cc:Work
         rdf:about="">
        <dc:format>image/svg+xml</dc:format>
        <dc:type
           rdf:resource="http://purl.org/dc/dcmitype/StillImage" />
        <dc:title></dc:title>
      </cc:Work>
    </rdf:RDF>
  </metadata>
  <g
     inkscape:label="Layer 1"
     inkscape:groupmode="layer"
     id="layer1">
    <path
       style="fill:#000000;stroke-width:0.264583"
       id="path849"
       d="" />
    <path
       style="fill:#000000;stroke-width:0.264583"
       id="path847"
       d="" />
    <g
       id="g6758"
       transform="matrix(0.47672296,0,0,0.47672296,373.68046,47.153395)">
      <path
         d="m -471.74492,17.958463 c -22.50722,1.340556 -43.10945,8.466667 -60.53667,20.884446 -10.33639,7.373056 -20.70806,17.956389 -28.36333,28.927779 -14.56973,20.919724 -23.81251,47.836672 -26.74056,77.858062 -0.59972,6.38528 -0.59972,29.28055 0,35.63055 2.75167,27.97528 9.8425,49.45945 22.68361,68.65056 3.77472,5.67973 7.83167,10.51278 13.15861,15.875 20.67278,20.63751 47.41334,31.82056 82.37362,34.39584 7.37306,0.52917 29.73917,0.21167 37.7825,-0.52917 21.34306,-2.01083 40.88695,-6.13833 56.30334,-11.88861 6.49111,-2.39889 6.91444,-2.61055 6.6675,-3.59833 -0.14111,-0.635 -10.05417,-48.68334 -10.05417,-48.75389 0,-0.0353 -1.30528,0.38805 -2.89278,0.91722 -29.80972,9.94833 -64.87583,12.94694 -87.9475,7.47889 -25.50584,-5.99723 -42.545,-22.64834 -47.9425,-46.70778 -0.98778,-4.51556 -1.97556,-11.43 -1.97556,-14.07584 v -1.76389 l 81.38584,-0.0705 81.42111,-0.10584 0.42334,-2.71638 c 0.98778,-6.45584 1.30528,-12.62945 1.30528,-25.15306 0,-13.72306 -0.3175,-19.3675 -1.72862,-30.69167 -5.53861,-44.203055 -25.18833,-77.011391 -55.5625,-92.92167 -17.39194,-9.101667 -37.35917,-12.982223 -59.76056,-11.641667 z m 10.90084,50.411948 c 6.31472,0.917222 11.39472,2.822222 16.47472,6.208889 13.75833,9.172223 22.01333,27.34028 22.75417,50.12972 l 0.21166,6.45584 h -48.93028 -48.895 v -1.27 c 0,-0.70556 0.24694,-2.96334 0.56444,-5.04472 2.89278,-19.79084 11.35945,-37.323895 22.61306,-46.672507 6.52639,-5.432778 12.27667,-8.184445 20.07306,-9.595556 3.28083,-0.599722 11.60639,-0.705555 15.13417,-0.211666 z"
         id="path6649-6"
         style="fill:#008bd2;fill-opacity:1;stroke:none;stroke-width:0.0352778" />
      <path
         d="m -675.68576,22.862074 c -19.82612,1.446389 -37.18279,6.738056 -51.68195,15.698612 -20.21417,12.523612 -33.69028,32.490836 -37.53556,55.562504 -2.2225,13.37028 -1.51695,24.41222 2.25778,35.73639 3.52778,10.54806 9.2075,19.3675 18.27389,28.36333 11.28889,11.21834 25.64694,20.21417 46.10806,28.85723 26.24666,11.07722 36.37139,18.90889 39.75805,30.76222 0.635,2.25778 0.77612,3.63361 0.77612,7.69056 0,5.78555 -0.49389,8.04333 -2.68112,12.52361 -1.16416,2.39889 -2.04611,3.59833 -4.37444,5.89139 -2.43417,2.39889 -3.52778,3.175 -6.56167,4.65667 -6.77333,3.31611 -13.54667,4.65666 -23.91833,4.65666 -3.38667,0 -7.76111,-0.17639 -9.70139,-0.38805 -15.31056,-1.65806 -34.74862,-7.58473 -49.31834,-15.06362 -2.46944,-1.27 -4.55083,-2.25777 -4.58611,-2.18722 -0.0706,0.0706 -3.13972,11.71223 -6.84389,25.89389 -4.19806,16.01612 -6.59694,25.89389 -6.42056,26.14084 0.59973,0.74083 9.59556,5.00944 14.67556,6.985 11.95917,4.65667 25.54111,7.90222 41.09861,9.80722 5.64445,0.67028 8.18445,0.77611 20.39056,0.77611 11.14778,0.0353 14.99306,-0.10583 19.22639,-0.59972 17.70945,-2.08139 29.80973,-5.3975 42.33334,-11.53583 20.70805,-10.16 34.53694,-25.43528 41.23972,-45.54362 2.99861,-9.03111 4.23334,-17.10972 4.23334,-28.01056 0.0353,-13.58194 -2.2225,-23.95361 -7.54945,-34.67805 -4.1275,-8.36084 -8.39611,-14.11111 -15.5575,-21.06084 -5.00944,-4.86833 -8.64306,-7.76111 -14.95778,-11.99444 -8.89,-5.92667 -16.08667,-9.66611 -30.1625,-15.69861 -19.26167,-8.255 -28.39861,-13.47611 -34.25472,-19.685 -4.55084,-4.79778 -6.31473,-9.27806 -6.31473,-15.98084 0,-10.371665 4.97417,-17.885832 14.88723,-22.507221 5.32694,-2.504722 10.93611,-3.563056 19.05,-3.563056 14.74611,0 30.19778,3.845278 46.10806,11.500556 2.61055,1.234723 4.83305,2.187223 4.93888,2.046112 0.10584,-0.105834 3.24556,-11.465279 6.94973,-25.258891 l 6.73805,-25.082501 -3.91583,-1.834445 c -13.29972,-6.279445 -30.33889,-10.724445 -47.3075,-12.347223 -6.985,-0.670278 -19.75556,-0.9525 -25.4,-0.529167 z"
         id="path6651-7"
         style="fill:#008bd2;fill-opacity:1;stroke:none;stroke-width:0.0352778" />
      <path
         d="m -338.2538,159.73986 v 136.17223 h 36.15973 36.15972 V 159.73986 23.56763 h -36.15972 -36.15973 z"
         id="path6653-5"
         style="fill:#008bd2;fill-opacity:1;stroke:none;stroke-width:0.0352778" />
      <path
         d="m -218.76796,217.06625 c -13.29972,2.50472 -24.62389,11.71222 -29.5275,23.91834 -2.25778,5.67972 -2.61056,7.54944 -2.61056,14.88722 -0.0353,6.27944 0.0353,6.91444 0.9525,10.23055 3.06917,11.07723 10.54806,20.17889 20.67278,25.22362 5.67973,2.8575 10.61862,3.98639 17.32139,3.98639 11.00667,0.0353 20.24945,-3.81 28.04584,-11.64167 11.85333,-11.92389 14.71083,-29.88028 7.23194,-45.15556 -5.15055,-10.4775 -14.21694,-17.81528 -25.68222,-20.81389 -4.37445,-1.12889 -12.17083,-1.41111 -16.40417,-0.635 z"
         id="path6655-3"
         style="fill:#008bd2;fill-opacity:1;stroke:none;stroke-width:0.0352778" />
      <path
         d="m -309.12698,-62.108267 c -13.29972,2.50472 -24.62389,11.71222 -29.5275,23.918344 -2.25778,5.67972 -2.61056,7.54944 -2.61056,14.88722 -0.0353,6.27944 0.0353,6.91444 0.9525,10.23055 3.06917,11.0772296 10.54806,20.1788896 20.67278,25.22362 5.67973,2.8575 10.61862,3.98639 17.32139,3.98639 11.00667,0.0353 20.24945,-3.81 28.04584,-11.6416704 11.85333,-11.92389 14.71083,-29.8802796 7.23194,-45.1555596 -5.15055,-10.477504 -14.21694,-17.815284 -25.68222,-20.813894 -4.37445,-1.12889 -12.17083,-1.41111 -16.40417,-0.635 z"
         id="path6655-3-5"
         style="fill:#a5b61b;fill-opacity:1;stroke:none;stroke-width:0.0352778" />
      <path
         d="M -247.89478,73.626047 V 209.79827 h 36.15973 36.15972 V 73.626047 -62.546187 h -36.15972 -36.15973 z"
         id="path6653-5-6"
         style="mix-blend-mode:normal;fill:#a5b61b;fill-opacity:1;stroke:none;stroke-width:0.0352778" />
    </g>
  </g>
</svg>
